<svg width="14" height="14" viewBox="0 0 14 14" fill="none" xmlns="http://www.w3.org/2000/svg">
<g clip-path="url(#clip0_10_23)">
<path d="M12.6 0H1.4C0.63 0 0 0.63 0 1.4V12.6C0 13.37 0.63 14 1.4 14H12.6C13.37 14 14 13.37 14 12.6V1.4C14 0.63 13.37 0 12.6 0ZM4.2 11.9H2.1V5.6H4.2V11.9ZM3.15 4.41C2.45 4.41 1.89 3.85 1.89 3.15C1.89 2.45 2.45 1.89 3.15 1.89C3.85 1.89 4.41 2.45 4.41 3.15C4.41 3.85 3.85 4.41 3.15 4.41ZM11.9 11.9H9.8V8.19C9.8 7.63003 9.31 7.14 8.75 7.14C8.19 7.14 7.7 7.63003 7.7 8.19V11.9H5.6V5.6H7.7V6.44C8.05 5.88 8.82 5.46 9.45 5.46C10.78 5.46 11.9 6.58 11.9 7.91V11.9Z" fill="white"/>
</g>
<defs>
<clipPath id="clip0_10_23">
<rect width="14" height="14" fill="white"/>
</clipPath>
</defs>
</svg>
